<?xml version="1.0" ?><svg xmlns="http://www.w3.org/2000/svg" width="64" height="64" viewBox="0 0 64 64" fill="none"><path d="M18.4 32.9999C14.92 29.9899 11.4 28.9999 9.39998 27.9999C8.12998 27.3699 6.52998 26.5299 5.22998 25.1099C5.65998 26.2999 6.05998 27.5799 6.39998 28.9999C7.33998 32.8999 7.48998 36.3499 7.39998 38.9999V56.9999H10.4L11.4 40.9999C11.45 40.2199 11.7 38.0099 13.4 35.9999C15.1 33.9999 17.27 33.3399 18.52 33.1099C18.48 33.0699 18.44 33.0299 18.4 32.9999Z" fill="#DE1C85"/><path d="M9.39988 28C11.3999 29 14.9199 29.99 18.3999 33C22.4299 36.48 24.3999 41 26.3999 46C28.3999 51 29.0799 53.76 30.3999 55C31.9699 56.34 34.1699 57 36.3999 57H57.3999C59.0599 57 60.3999 55.66 60.3999 54C60.3999 52.63 59.4799 51.47 58.2299 51.12L46.3999 47C44.7999 47.85 43.4499 48.04 42.3999 48C36.8599 47.8 33.5299 39.7 29.3999 31C26.5599 25.02 24.3999 15 13.3999 6C5.42988 9.53 1.67988 16.8 3.39988 22C4.55988 25.5 7.39988 27 9.39988 28Z" fill="#DE1C85"/><path opacity="0.3" d="M58.2299 51.11L46.3999 46.99C44.7999 47.84 43.4499 48.03 42.3999 47.99C36.8599 47.79 33.5299 39.69 29.3999 30.99C26.5599 25.01 24.3999 14.99 13.3999 5.98999C7.57994 8.57999 4.02994 13.14 3.18994 17.45C4.77994 14.14 7.91994 10.98 12.3999 8.99999C23.3999 18 25.5599 28.02 28.3999 34C32.5299 42.7 35.8599 50.8 41.3999 51C42.4499 51.04 43.7999 50.85 45.3999 50L57.2299 54.12C58.2599 54.42 59.06 55.25 59.31 56.3C59.97 55.75 60.4 54.93 60.4 54C60.4 52.63 59.4799 51.47 58.2299 51.12V51.11Z" fill="white"/><path opacity="0.3" d="M57.4001 53.0001H36.4001C34.1701 53.0001 31.9701 52.3401 30.4001 51.0001C29.0801 49.7601 28.4001 47.0001 26.4001 42.0001C24.4001 37.0001 22.4301 32.4801 18.4001 29.0001C14.9201 25.9901 11.4001 25.0001 9.40012 24.0001C7.40012 23.0001 4.56012 21.5001 3.40012 18.0001C3.33012 17.7801 3.28012 17.5401 3.22012 17.3101C2.88012 18.9501 2.92012 20.5501 3.40012 22.0001C4.56012 25.5001 7.40012 27.0001 9.40012 28.0001C11.4001 29.0001 14.9201 29.9901 18.4001 33.0001C22.4301 36.4801 24.4001 41.0001 26.4001 46.0001C28.4001 51.0001 29.0801 53.7601 30.4001 55.0001C31.9701 56.3401 34.1701 57.0001 36.4001 57.0001H57.4001C59.0601 57.0001 60.4001 55.6601 60.4001 54.0001C60.4001 53.2301 60.1001 52.5301 59.6201 52.0001C59.0701 52.6101 58.2801 53.0001 57.4001 53.0001Z" fill="#2E1051"/><path opacity="0.3" d="M18.52 33.1099C18.52 33.1099 18.44 33.0299 18.4 32.9999C14.92 29.9899 11.4 28.9999 9.39998 27.9999C8.12998 27.3699 6.52998 26.5299 5.22998 25.1099C5.65998 26.2999 6.05998 27.5799 6.39998 28.9999C6.51998 29.4799 6.61998 29.9499 6.70998 30.4199C7.62998 31.0899 8.57998 31.5899 9.39998 31.9999C10.73 32.6699 12.74 33.3399 14.95 34.5899C16.27 33.6599 17.63 33.2699 18.52 33.1099Z" fill="#2E1051"/><path d="M7.3999 51V57H10.3999L10.7799 51H7.3999Z" fill="#2CCBD1"/><path d="M10.3999 58H7.3999C6.8499 58 6.3999 57.55 6.3999 57V51C6.3999 50.45 6.8499 50 7.3999 50H10.7799C11.0599 50 11.3199 50.11 11.5099 50.32C11.6999 50.53 11.7999 50.79 11.7799 51.07L11.3999 57.07C11.3699 57.6 10.9299 58.01 10.3999 58.01V58ZM8.3999 56H9.4599L9.7099 52H8.3999V56Z" fill="#2E1051"/><path d="M57.3999 58H36.3999C33.7999 58 31.4399 57.2 29.7499 55.76C28.5999 54.68 27.9599 52.97 26.9099 50.13C26.5099 49.05 26.0499 47.81 25.4699 46.38C23.4099 41.23 21.5399 37.04 17.7499 33.77C15.2299 31.59 12.7199 30.54 10.7099 29.69C10.0499 29.41 9.45987 29.16 8.95987 28.91C7.01987 27.94 3.76987 26.32 2.45987 22.33C0.669869 16.93 4.12987 9.01004 12.9999 5.09004C13.3399 4.94004 13.7499 4.99004 14.0399 5.23004C23.0599 12.61 26.2899 20.72 28.6499 26.64C29.2199 28.07 29.7599 29.42 30.3099 30.57L31.2799 32.63C34.8599 40.25 37.9499 46.84 42.4399 47C43.5699 47.05 44.7499 46.74 45.9399 46.12C46.1899 45.99 46.4699 45.97 46.7399 46.06L58.5699 50.18C60.2199 50.65 61.4099 52.23 61.4099 54.01C61.4099 56.22 59.6199 58.01 57.4099 58.01L57.3999 58ZM13.2499 7.17004C7.46987 9.97004 2.52987 16.16 4.34987 21.69C5.39987 24.89 8.07987 26.22 9.84987 27.11C10.3199 27.34 10.8699 27.58 11.4899 27.84C13.5199 28.7 16.2999 29.87 19.0599 32.25C23.1799 35.81 25.2499 40.42 27.3399 45.64C27.9199 47.09 28.3899 48.35 28.7899 49.44C29.7099 51.92 30.3199 53.56 31.0899 54.28C32.3599 55.37 34.3099 56.01 36.3999 56.01H57.3999C58.4999 56.01 59.3999 55.11 59.3999 54.01C59.3999 53.12 58.7999 52.33 57.9499 52.09L46.4699 48.1C45.0999 48.76 43.7099 49.06 42.3599 49.02C36.6499 48.81 33.3199 41.72 29.4599 33.5L28.4899 31.45C27.9099 30.24 27.3599 28.86 26.7799 27.4C24.5399 21.79 21.4899 14.14 13.2399 7.19004L13.2499 7.17004Z" fill="#2E1051"/><path d="M10.4 58H7.4C6.85 58 6.4 57.55 6.4 57V39C6.52 35.68 6.19 32.41 5.43 29.23C5.13 27.98 4.76 26.74 4.29 25.45C4.13 25 4.3 24.5 4.71 24.25C5.12 24 5.64 24.08 5.96 24.43C7.1 25.68 8.51 26.43 9.84 27.1C10.31 27.33 10.86 27.57 11.48 27.83C13.51 28.69 16.29 29.86 19.05 32.24C19.05 32.24 19.15 32.33 19.16 32.35C19.42 32.61 19.55 33.03 19.44 33.38C19.33 33.73 19.06 34.03 18.69 34.09C17.41 34.32 15.59 34.95 14.16 36.64C12.77 38.28 12.46 40.11 12.4 41.06L11.4 57.06C11.37 57.59 10.93 58 10.4 58ZM8.4 56H9.46L10.4 40.94C10.48 39.75 10.87 37.43 12.64 35.36C13.81 33.98 15.2 33.17 16.39 32.69C14.34 31.21 12.36 30.37 10.7 29.68C10.04 29.4 9.45 29.15 8.95 28.9C8.38 28.61 7.77 28.3 7.16 27.93C7.24 28.21 7.31 28.49 7.37 28.77C8.17 32.12 8.52 35.57 8.4 39.04V56Z" fill="#2E1051"/><path d="M57.7002 42.3901C58.7702 42.1001 59.4002 41.0101 59.1102 39.9401C58.8202 38.8701 57.7302 38.2401 56.6602 38.5301C56.5402 38.5601 56.4302 38.6101 56.3302 38.6601C56.2002 38.4701 56.0602 38.2901 55.9102 38.1101C55.9902 38.0201 56.0602 37.9301 56.1202 37.8201C56.6702 36.8601 56.3402 35.6401 55.3902 35.0901C54.4402 34.5401 53.2102 34.8701 52.6602 35.8201C52.6002 35.9301 52.5502 36.0401 52.5102 36.1501C52.2802 36.1101 52.0502 36.0701 51.8202 36.0601C51.8202 35.9401 51.7902 35.8301 51.7602 35.7101C51.4702 34.6401 50.3802 34.0101 49.3102 34.3001C48.2402 34.5901 47.6102 35.6801 47.9002 36.7501C47.9302 36.8701 47.9802 36.9801 48.0302 37.0801C47.8402 37.2101 47.6602 37.3501 47.4802 37.5001C47.3902 37.4201 47.3002 37.3501 47.1902 37.2901C46.2302 36.7401 45.0102 37.0701 44.4602 38.0201C43.9102 38.9701 44.2402 40.2001 45.1902 40.7501C45.3002 40.8101 45.4102 40.8601 45.5202 40.9001C45.4802 41.1301 45.4402 41.3601 45.4302 41.5901C45.3102 41.5901 45.2002 41.6201 45.0802 41.6501C44.0102 41.9401 43.3802 43.0301 43.6702 44.1001C43.9602 45.1701 45.0502 45.8001 46.1202 45.5101C46.2402 45.4801 46.3502 45.4301 46.4502 45.3801C46.5802 45.5701 46.7202 45.7501 46.8702 45.9301C46.7902 46.0201 46.7202 46.1101 46.6602 46.2201C46.1102 47.1801 46.4402 48.4001 47.3902 48.9501C48.3502 49.5001 49.5702 49.1701 50.1202 48.2201C50.1802 48.1101 50.2302 48.0001 50.2702 47.8901C50.5002 47.9301 50.7302 47.9701 50.9602 47.9801C50.9602 48.1001 50.9902 48.2101 51.0202 48.3301C51.3102 49.4001 52.4002 50.0301 53.4702 49.7401C54.5402 49.4501 55.1702 48.3601 54.8802 47.2901C54.8502 47.1701 54.8002 47.0601 54.7502 46.9601C54.9402 46.8301 55.1202 46.6901 55.3002 46.5401C55.3902 46.6201 55.4802 46.6901 55.5902 46.7501C56.5502 47.3001 57.7702 46.9701 58.3202 46.0201C58.8702 45.0601 58.5402 43.8401 57.5902 43.2901C57.4802 43.2301 57.3702 43.1801 57.2602 43.1401C57.3002 42.9101 57.3402 42.6801 57.3502 42.4501C57.4702 42.4501 57.5802 42.4201 57.7002 42.3901Z" fill="white"/><path d="M57.7 42.3901C58.77 42.1001 59.4 41.0101 59.11 39.9401C58.82 38.8701 57.73 38.2401 56.66 38.5301C56.54 38.5601 56.43 38.6101 56.33 38.6601C56.2 38.4701 56.06 38.2901 55.91 38.1101C55.99 38.0201 56.06 37.9301 56.12 37.8201C56.67 36.8601 56.34 35.6401 55.39 35.0901C54.44 34.5401 53.21 34.8701 52.66 35.8201C52.6 35.9201 52.56 36.0201 52.52 36.1301C52.66 36.2401 52.81 36.3401 52.94 36.4701C54.89 38.4201 54.89 41.5901 52.94 43.5401C50.99 45.4901 47.82 45.4901 45.87 43.5401C45.35 43.0201 44.98 42.4101 44.74 41.7701C43.89 42.1801 43.42 43.1401 43.67 44.0901C43.96 45.1601 45.05 45.7901 46.12 45.5001C46.24 45.4701 46.35 45.4201 46.45 45.3701C46.58 45.5601 46.72 45.7401 46.87 45.9201C46.79 46.0101 46.72 46.1001 46.66 46.2101C46.11 47.1701 46.44 48.3901 47.39 48.9401C48.35 49.4901 49.57 49.1601 50.12 48.2101C50.18 48.1001 50.23 47.9901 50.27 47.8801C50.5 47.9201 50.73 47.9601 50.96 47.9701C50.96 48.0901 50.99 48.2001 51.02 48.3201C51.31 49.3901 52.4 50.0201 53.47 49.7301C54.54 49.4401 55.17 48.3501 54.88 47.2801C54.85 47.1601 54.8 47.0501 54.75 46.9501C54.94 46.8201 55.12 46.6801 55.3 46.5301C55.39 46.6101 55.48 46.6801 55.59 46.7401C56.55 47.2901 57.77 46.9601 58.32 46.0101C58.87 45.0501 58.54 43.8301 57.59 43.2801C57.48 43.2201 57.37 43.1701 57.26 43.1301C57.3 42.9001 57.34 42.6701 57.35 42.4401C57.47 42.4401 57.58 42.4101 57.7 42.3801V42.3901Z" fill="#2CCBD1"/><path d="M52.9401 50.8101C52.4201 50.8101 51.9101 50.6701 51.4401 50.4101C51.0201 50.1701 50.6701 49.8301 50.4101 49.4301C49.4701 50.2901 48.0401 50.4801 46.8901 49.8101C46.2001 49.4101 45.7001 48.7601 45.4901 47.9901C45.3601 47.5201 45.3501 47.0301 45.4601 46.5701C44.9801 46.5501 44.5201 46.4101 44.1001 46.1701C43.4101 45.7701 42.9101 45.1201 42.7001 44.3501C42.4901 43.5801 42.6001 42.7701 43.0001 42.0701C43.2401 41.6501 43.5801 41.3001 43.9801 41.0401C43.6601 40.6901 43.4201 40.2601 43.3001 39.7901C43.0901 39.0201 43.2001 38.2101 43.6001 37.5101C44.0001 36.8201 44.6501 36.3201 45.4201 36.1101C45.8901 35.9901 46.3801 35.9701 46.8401 36.0801C46.8601 35.6101 47.0001 35.1401 47.2401 34.7201C47.6401 34.0301 48.2901 33.5301 49.0601 33.3201C50.3501 32.9701 51.6801 33.5301 52.3601 34.6001C52.7101 34.2801 53.1401 34.0401 53.6101 33.9201C54.3901 33.7101 55.1901 33.8201 55.8901 34.2201C57.0501 34.8901 57.5901 36.2201 57.3201 37.4601C58.5901 37.5201 59.7401 38.3901 60.0801 39.6801C60.2901 40.4501 60.1801 41.2601 59.7801 41.9601C59.5401 42.3801 59.2001 42.7301 58.8001 42.9901C59.6601 43.9301 59.8501 45.3501 59.1801 46.5101C58.5101 47.6701 57.1801 48.2101 55.9301 47.9401C55.8701 49.2101 55.0001 50.3601 53.7101 50.7001C53.4501 50.7701 53.1901 50.8001 52.9301 50.8001L52.9401 50.8101ZM50.2701 46.8801C50.3301 46.8801 50.3901 46.8801 50.4601 46.9001C50.6501 46.9401 50.8401 46.9701 51.0301 46.9801C51.5201 47.0101 51.9201 47.4001 51.9601 47.8901C51.9601 47.9501 51.9701 48.0101 51.9901 48.0601C52.0601 48.3201 52.2201 48.5301 52.4601 48.6701C52.6901 48.8001 52.9601 48.8401 53.2201 48.7701C53.7501 48.6301 54.0701 48.0801 53.9301 47.5401C53.9101 47.4801 53.8901 47.4301 53.8701 47.3801C53.6601 46.9301 53.8001 46.4001 54.2101 46.1301C54.3701 46.0201 54.5201 45.9001 54.6701 45.7801C55.0401 45.4601 55.5901 45.4601 55.9701 45.7801C56.0201 45.8201 56.0601 45.8601 56.1201 45.8901C56.6001 46.1701 57.2101 46.0001 57.4901 45.5201C57.7701 45.0401 57.6001 44.4301 57.1201 44.1501C57.0701 44.1201 57.0101 44.1001 56.9601 44.0801C56.5001 43.9101 56.2201 43.4401 56.3101 42.9501C56.3501 42.7601 56.3701 42.5701 56.3901 42.3801C56.4301 41.8901 56.8101 41.5001 57.3001 41.4601C57.3601 41.4601 57.4201 41.4501 57.4801 41.4301C57.7401 41.3601 57.9501 41.2001 58.0901 40.9601C58.2201 40.7301 58.2601 40.4601 58.1901 40.2001C58.0501 39.6701 57.5001 39.3501 56.9701 39.4901C56.9101 39.5101 56.8601 39.5301 56.8001 39.5601C56.3501 39.7701 55.8301 39.6201 55.5501 39.2201C55.4401 39.0601 55.3201 38.9101 55.1901 38.7601C54.8701 38.3901 54.8701 37.8401 55.1901 37.4601C55.2301 37.4101 55.2701 37.3701 55.3001 37.3101C55.5701 36.8301 55.4101 36.2201 54.9301 35.9501C54.7001 35.8201 54.4301 35.7801 54.1701 35.8501C53.9101 35.9201 53.7001 36.0801 53.5601 36.3201C53.5301 36.3801 53.5101 36.4301 53.4901 36.4901C53.3201 36.9501 52.8401 37.2201 52.3601 37.1301C52.1701 37.0901 51.9801 37.0701 51.7901 37.0501C51.3001 37.0101 50.9101 36.6301 50.8701 36.1401C50.8701 36.0801 50.8601 36.0201 50.8401 35.9701C50.7001 35.4401 50.1501 35.1201 49.6201 35.2601C49.0901 35.4001 48.7701 35.9501 48.9101 36.4801C48.9301 36.5401 48.9501 36.5901 48.9701 36.6401C49.1801 37.0901 49.0301 37.6201 48.6301 37.8901C48.4701 38.0001 48.3201 38.1201 48.1801 38.2401C47.8101 38.5601 47.2601 38.5601 46.8801 38.2401C46.8301 38.2001 46.7901 38.1601 46.7301 38.1301C46.2501 37.8501 45.6401 38.0201 45.3601 38.5001C45.2301 38.7301 45.1901 39.0001 45.2601 39.2601C45.3301 39.5201 45.4901 39.7301 45.7301 39.8701C45.7801 39.9001 45.8401 39.9201 45.8901 39.9401C46.3501 40.1101 46.6301 40.5801 46.5401 41.0701C46.5001 41.2601 46.4801 41.4501 46.4601 41.6401C46.4201 42.1301 46.0401 42.5201 45.5501 42.5601C45.4901 42.5601 45.4301 42.5701 45.3701 42.5901C45.1101 42.6601 44.9001 42.8201 44.7601 43.0601C44.6301 43.2901 44.5901 43.5601 44.6601 43.8201C44.7301 44.0801 44.8901 44.2901 45.1301 44.4301C45.3601 44.5601 45.6301 44.6001 45.8901 44.5301C45.9501 44.5101 46.0001 44.4901 46.0601 44.4601C46.5001 44.2501 47.0301 44.4001 47.3101 44.8001C47.4201 44.9601 47.5401 45.1101 47.6601 45.2601C47.9801 45.6301 47.9801 46.1801 47.6601 46.5601C47.6201 46.6101 47.5801 46.6501 47.5501 46.7101C47.2701 47.1901 47.4401 47.8001 47.9201 48.0801C48.4001 48.3501 49.0101 48.1901 49.2901 47.7101C49.3201 47.6601 49.3401 47.6001 49.3601 47.5401C49.5101 47.1401 49.8901 46.8801 50.3001 46.8801H50.2701Z" fill="#2E1051"/></svg>